<svg width="4" height="49" viewBox="0 0 4 49" fill="none" xmlns="http://www.w3.org/2000/svg">
<path d="M1.8125 4.20455C1.31818 4.20455 0.894176 4.03196 0.540483 3.68679C0.191051 3.33736 0.0184659 2.91335 0.0227273 2.41477C0.0184659 1.92898 0.191051 1.51349 0.540483 1.16832C0.894176 0.823153 1.31818 0.650568 1.8125 0.650568C2.28125 0.650568 2.6946 0.823153 3.05256 1.16832C3.41477 1.51349 3.59801 1.92898 3.60227 2.41477C3.59801 2.74716 3.51065 3.04972 3.3402 3.32244C3.17401 3.59091 2.95668 3.80611 2.68821 3.96804C2.41974 4.12571 2.12784 4.20455 1.8125 4.20455ZM1.8125 26.2045C1.31818 26.2045 0.894176 26.032 0.540483 25.6868C0.191051 25.3374 0.0184659 24.9134 0.0227273 24.4148C0.0184659 23.929 0.191051 23.5135 0.540483 23.1683C0.894176 22.8232 1.31818 22.6506 1.8125 22.6506C2.28125 22.6506 2.6946 22.8232 3.05256 23.1683C3.41477 23.5135 3.59801 23.929 3.60227 24.4148C3.59801 24.7472 3.51065 25.0497 3.3402 25.3224C3.17401 25.5909 2.95668 25.8061 2.68821 25.968C2.41974 26.1257 2.12784 26.2045 1.8125 26.2045ZM1.8125 48.2045C1.31818 48.2045 0.894176 48.032 0.540483 47.6868C0.191051 47.3374 0.0184659 46.9134 0.0227273 46.4148C0.0184659 45.929 0.191051 45.5135 0.540483 45.1683C0.894176 44.8232 1.31818 44.6506 1.8125 44.6506C2.28125 44.6506 2.6946 44.8232 3.05256 45.1683C3.41477 45.5135 3.59801 45.929 3.60227 46.4148C3.59801 46.7472 3.51065 47.0497 3.3402 47.3224C3.17401 47.5909 2.95668 47.8061 2.68821 47.968C2.41974 48.1257 2.12784 48.2045 1.8125 48.2045Z" fill="white"/>
</svg>
